<svg height="478pt" viewBox="-107 0 478 478" width="478pt" xmlns="http://www.w3.org/2000/svg"><path d="m208.300781 89c-9.488281-11.414062-23.5625-18.007812-38.402343-18h-27.597657v-61c0-5.523438-4.476562-10-10-10-5.523437 0-10 4.476562-10 10v61h-27.601562c-14.839844-.007812-28.914063 6.585938-38.398438 18l-44.699219 53.601562c-7.496093 8.976563-11.601562 20.300782-11.601562 32v253.398438c.0117188 27.609375 22.390625 49.988281 50 50h164.601562c27.609376-.011719 49.988282-22.390625 50-50v-253.300781c0-11.695313-4.105468-23.019531-11.601562-32zm-76 50c23.03125 0 41.699219 18.667969 41.699219 41.699219s-18.667969 41.699219-41.699219 41.699219-41.699219-18.667969-41.699219-41.699219c.019532-23.019531 18.675782-41.675781 41.699219-41.699219zm30.097657 178.199219c5.523437 0 10 4.476562 10 10 0 5.523437-4.476563 10-10 10h-57.597657v1.800781c0 1.300781.097657 2.5.199219 3.699219h51.601562c5.519532 0 10 4.476562 10 10 0 5.523437-4.480468 10-10 10h-45.402343c2.027343 3.515625 4.519531 6.746093 7.402343 9.601562 13.214844 13.199219 32.960938 17.390625 50.398438 10.699219 5.136719-1.988281 10.910156.5625 12.898438 5.699219 1.988281 5.136719-.5625 10.914062-5.699219 12.902343-24.800781 9.5625-52.910157 3.605469-71.699219-15.203124-6.742188-6.765626-11.992188-14.875-15.398438-23.796876h-11c-5.523437 0-10-4.480468-10-10 0-5.523437 4.476563-10 10-10h6.796876c-.097657-1.203124-.097657-2.5-.097657-3.703124v-1.796876h-6.699219c-5.523437 0-10-4.480468-10-10 0-5.523437 4.476563-10 10-10h10.199219c3.304688-9.699218 8.816407-18.496093 16.097657-25.703124 18.808593-18.769532 46.894531-24.726563 71.703124-15.199219 5.132813 1.988281 7.6875 7.765625 5.699219 12.902343-1.988281 5.132813-7.765625 7.6875-12.902343 5.699219-22.445313-8.636719-47.800782.960938-58.898438 22.300781zm0 0"/><path d="m132.300781 202.398438c11.984375 0 21.699219-9.714844 21.699219-21.699219s-9.714844-21.699219-21.699219-21.699219-21.699219 9.714844-21.699219 21.699219c-.007812 5.757812 2.277344 11.28125 6.347657 15.351562 4.070312 4.070313 9.59375 6.355469 15.351562 6.347657zm0 0"/></svg>